<svg width="93" height="83" viewBox="0 0 93 83" fill="none" xmlns="http://www.w3.org/2000/svg">
<path d="M89.4252 41.7954C89.4457 37.281 88.5437 32.8076 86.7705 28.6346C84.9974 24.4616 82.3892 20.6721 79.0968 17.4861C75.8047 14.3001 71.8937 11.7808 67.5913 10.0746C63.2889 8.36836 58.6802 7.50909 54.0335 7.54659H38.1103C33.5243 7.51825 28.9801 8.39307 24.7519 10.1182C20.5236 11.8434 16.6992 14.3831 13.5094 17.584C10.3197 20.7849 7.83072 24.5806 6.19299 28.7419C4.55527 32.9032 3.80272 37.3437 3.98071 41.7954C3.93098 50.65 7.49427 59.1631 13.8907 65.4715C20.2871 71.7803 28.9956 75.37 38.1103 75.4556H54.0335C63.2719 75.3908 72.1239 71.8459 78.7254 65.5673C85.327 59.2887 89.1629 50.7665 89.4252 41.7954Z" fill="#0079BE"/>
<path d="M38.2192 10.4176C31.844 10.2147 25.5516 11.8658 20.1487 15.1594C14.7457 18.453 10.4783 23.2389 7.89337 28.9037C5.30844 34.5686 4.52389 40.8542 5.64016 46.9551C6.75644 53.0559 9.72271 58.6939 14.1588 63.1465C18.5949 67.5991 24.2986 70.6633 30.539 71.9464C36.7794 73.2295 43.2723 72.673 49.1849 70.3486C55.0976 68.0239 60.1612 64.0368 63.726 58.8988C67.2912 53.7603 69.1958 47.7051 69.1954 41.5088C69.3312 33.3954 66.1443 25.562 60.3353 19.7314C54.5263 13.9008 46.5709 10.5506 38.2192 10.4176Z" fill="white"/>
<path d="M18.6377 41.4304C18.6071 37.495 19.7909 33.641 22.0366 30.3654C24.2821 27.0899 27.4865 24.543 31.2362 23.0534V59.83C27.4843 58.3367 24.2789 55.786 22.0333 52.5064C19.7878 49.2267 18.6051 45.3691 18.6377 41.4304ZM45.2991 59.83V23.0308C49.0364 24.5457 52.2287 27.1009 54.474 30.3747C56.7194 33.6485 57.9178 37.4945 57.9178 41.4285C57.9178 45.3623 56.7194 49.2082 54.474 52.4822C52.2287 55.7562 49.0364 58.3148 45.2991 59.83Z" fill="#0079BE"/>
</svg>
