<svg width="175" height="63" viewBox="0 0 175 63" fill="none" xmlns="http://www.w3.org/2000/svg">
<path d="M36.5647 16.9836H37.1991L37.7125 16.8347L38.2256 16.6571L38.6474 16.2133L39.1017 15.7694L39.3437 15.1795L39.5855 14.5896V12.8456L39.3731 12.4905L39.1934 12.1641L38.801 11.9264L38.4379 11.7202H36.8687L36.3259 11.9579L35.8125 12.1956L35.4791 12.522L35.1843 12.8485L34.9422 13.4212L34.7005 13.9939L34.6415 14.8816L34.6118 15.7694L34.8242 16.1846L35.0662 16.6285L35.4879 16.8347L35.9423 17.0122L36.5647 16.9836Z" fill="#B3131B"/>
<path d="M137.891 42.0271H140.156V40.6383L140.428 38.9544C140.578 38.0094 140.82 36.5289 140.97 35.6727C141.121 34.8165 141.304 33.6911 141.363 33.1899C141.422 32.6888 141.634 31.6808 141.817 30.8847C142 30.0886 142.209 29.2582 142.301 28.9918C142.392 28.7255 142.451 28.4879 142.481 28.402C142.589 28.0549 142.73 27.7184 142.903 27.3968L143.325 26.4805L143.897 25.7417L144.469 25.0029L145.059 24.559C145.448 24.2768 145.863 24.0295 146.298 23.8202L146.888 23.5338H149.514L150.027 23.7114L150.54 23.8602L150.632 23.8316L150.723 23.7715V23.4451C150.765 22.9368 150.846 22.4323 150.965 21.9359L151.207 20.7904L150.935 20.7017C150.785 20.6415 150.422 20.5241 150.121 20.4354L149.608 20.2578H147.735L146.95 20.5241L146.195 20.7904L145.62 21.1455L145.047 21.472L144.292 22.2394L143.537 23.0069L143.144 23.5968C143.017 23.8098 142.865 24.0078 142.69 24.1867C142.69 24.1581 142.811 23.4766 142.962 22.649C143.09 22.0815 143.189 21.508 143.257 20.9308V20.6931H139.431V20.7532C139.431 20.8134 139.339 21.4634 139.218 22.2308C139.097 22.9983 138.855 24.4788 138.675 25.5126C138.495 26.5464 138.221 28.233 138.085 29.2668C137.95 30.3005 137.631 31.7209 137.513 32.4883C137.395 33.2558 137.091 34.5874 136.938 35.4751C136.785 36.3628 136.484 37.7517 136.304 38.5793C136.124 39.4069 135.911 40.5609 135.79 41.0936L135.61 42.0386L137.891 42.0271Z" fill="#B3131B"/>
<path d="M84.8118 42.0268H87.0448L87.1039 41.0818C87.1332 40.5778 87.2839 39.544 87.3987 38.8052C87.5139 38.0664 87.7324 36.5887 87.9121 35.4948C88.0922 34.4009 88.4255 32.657 88.6379 31.5344C88.8502 30.4119 89.1216 29.3466 89.21 29.1089C89.2826 28.9185 89.3331 28.7206 89.3607 28.5191C89.4664 28.1949 89.5977 27.8789 89.7531 27.5741C90.0054 27.066 90.2882 26.5727 90.5996 26.0965L91.0833 25.4178L91.7177 24.8279L92.3518 24.2551L93.1366 23.8714L93.9214 23.5163H96.3374L96.9272 23.6939C97.2224 23.7826 97.5173 23.8714 97.5616 23.8714C97.606 23.8714 97.6207 23.754 97.6207 23.6337C97.682 23.1262 97.7728 22.6223 97.892 22.1246C98.0424 21.4144 98.1634 20.8245 98.1634 20.793C97.9255 20.6658 97.6718 20.5695 97.4083 20.5067C96.9862 20.3892 96.4112 20.269 96.1101 20.2203L95.5967 20.1602L94.9036 20.2776C94.4818 20.3512 94.0671 20.4604 93.6647 20.604C93.2738 20.7593 92.8993 20.9511 92.5466 21.1767C92.163 21.4247 91.7999 21.7015 91.461 22.0043C91.0895 22.3837 90.7464 22.7885 90.4345 23.2157C90.1393 23.6309 89.8444 24.0432 89.7411 24.132L89.5907 24.3382L89.682 23.9545C89.7411 23.7168 89.8621 22.9779 89.9772 22.2993C90.092 21.6206 90.2189 20.9992 90.2486 20.8674L90.3076 20.6899H86.3223V20.9562C86.3223 21.0737 86.2013 21.9012 86.0506 22.7603C85.9002 23.6194 85.6582 25.0655 85.5375 25.9819C85.4165 26.8983 85.1155 28.436 84.9651 29.4697C84.8147 30.5035 84.511 31.9239 84.3753 32.6913C84.2393 33.4588 83.9829 34.7904 83.8029 35.6781C83.6228 36.5658 83.3485 37.9833 83.1688 38.8281C82.9887 39.6729 82.8057 40.7496 82.7144 41.1333C82.6486 41.3968 82.5984 41.6634 82.5637 41.9323V42.021L84.8118 42.0268Z" fill="#B3131B"/>
<path d="M32.1253 42.0228H34.3907L34.4497 41.8452C34.4899 41.6803 34.5099 41.5111 34.5087 41.3412C34.5087 41.1351 34.6591 40.0984 34.8421 39.0647C35.0251 38.0309 35.2965 36.2841 35.4765 35.2503C35.6563 34.2165 35.8983 32.673 36.0486 31.8512C36.199 31.0293 36.441 29.692 36.5914 28.8357C36.7418 27.9795 37.0132 26.6766 37.1639 25.9091C37.3142 25.1417 37.6179 23.6927 37.798 22.6875C37.978 21.6824 38.2197 20.8262 38.2523 20.766L38.3114 20.6772L36.0163 20.7059L33.7507 20.7345L33.5383 22.0661C33.4467 22.8049 33.205 24.2539 33.0546 25.2877C32.9039 26.3215 32.6002 27.9194 32.4645 28.8357C32.3288 29.7521 32.0721 31.2011 31.8921 32.0573C31.7121 32.9136 31.4703 34.2738 31.32 35.0441C31.1693 35.8144 30.9276 37.1432 30.7475 37.9994C30.5675 38.8556 30.3257 40.0383 30.2343 40.5767C30.1428 41.115 29.9924 41.6419 29.9629 41.788L29.9039 42.0257L32.1253 42.0228Z" fill="#B3131B"/>
<path d="M3.9882 42.0268H6.52518L6.70511 40.9043C6.79657 40.3144 7.00014 39.1317 7.12699 38.327C7.25384 37.5223 7.54881 35.9903 7.69928 34.9279C7.84972 33.8654 8.15356 32.3506 8.28925 31.4915C8.42497 30.6324 8.68161 29.3323 8.80256 28.5935C8.88653 28.105 8.99782 27.6213 9.13592 27.1445L9.1949 27.0844H22.871L22.93 27.1732L23.0215 27.2333L22.9005 27.8232C22.8415 28.1496 22.6291 29.1548 22.4787 30.0711C22.3282 30.9875 21.9949 32.4966 21.8149 33.4416C21.6349 34.3866 21.393 35.7469 21.2426 36.457C21.0922 37.1672 20.8208 38.6448 20.6526 39.7388C20.4845 40.8327 20.2898 41.8092 20.2898 41.8664V42.0154H25.3932L25.5142 41.3653C25.5732 41.0102 25.6646 40.3888 25.7266 39.9335C25.7885 39.4782 25.939 38.6019 26.0599 37.9519C26.1809 37.3018 26.3933 35.9129 26.5732 34.9651C26.7532 34.0172 27.0275 32.362 27.2075 31.3283C27.3874 30.2945 27.6293 28.751 27.7798 27.9292C27.9302 27.1073 28.1721 25.7413 28.3521 24.8536C28.532 23.9659 28.7739 22.5169 28.942 21.5719C29.1102 20.6269 29.3963 19.2352 29.532 18.4677C29.6677 17.7002 29.9244 16.2512 30.1043 15.2747C30.2843 14.2982 30.4967 13.2043 30.6177 12.792L30.7975 12.0532H25.6056L25.5466 12.5257C25.5171 12.792 25.3667 13.5594 25.2752 14.2095C25.1838 14.8595 24.9419 16.0136 24.7915 16.7524C24.641 17.4912 24.3991 18.9688 24.2487 20.0055C24.0982 21.0421 23.8563 22.3422 23.7649 22.9922L23.5849 24.1148L19.7794 24.2036L15.974 24.2637L12.8027 24.2036C11.0504 24.1749 9.60201 24.1148 9.60201 24.1148C9.60744 23.8154 9.64803 23.5175 9.72296 23.2271C9.81439 22.7546 9.96485 21.927 10.0858 21.3943C10.2068 20.8617 10.4192 19.7964 10.5696 19.0289C10.7201 18.2615 10.8646 17.3108 10.9324 16.9299C11.0003 16.549 11.1124 15.8647 11.1743 15.4523C11.2363 15.0399 11.4457 14.1808 11.5667 13.5594C11.6876 12.938 11.8086 12.288 11.8381 12.1992L11.8971 12.0503H6.76411L6.58416 12.938C6.49273 13.442 6.40421 14.1493 6.34226 14.5044C6.28032 14.8595 6.07088 16.0422 5.92044 17.1361C5.76997 18.23 5.46613 19.7964 5.33044 20.6555C5.19475 21.5146 4.9381 23.1383 4.75815 24.2036C4.5782 25.2688 4.30384 26.924 4.12389 27.9005C3.94393 28.877 3.70204 30.2057 3.55159 30.9159C3.40114 31.6261 3.15924 32.9548 2.9793 33.9027C2.79935 34.8505 2.525 36.1506 2.407 36.8007C2.289 37.4507 2.11202 38.2783 2.04417 38.5446C1.97632 38.8109 1.83177 39.6385 1.68132 40.3774C1.53087 41.1162 1.40991 41.7376 1.40991 41.8263V42.0039L3.9882 42.0268Z" fill="#B3131B"/>
<path d="M156.278 42.4993L157.275 42.5279L158.21 42.379C158.707 42.31 159.199 42.2143 159.685 42.0926C160.081 41.9678 160.465 41.8097 160.832 41.6201L161.467 41.3338L162.01 40.8613L162.552 40.3888L163.125 39.65C163.42 39.2347 163.7 38.8224 163.759 38.7622L163.821 38.5847L163.759 39.1173C163.73 39.3836 163.667 39.8561 163.608 40.1224C163.55 40.3888 163.488 40.95 163.458 41.3338L163.367 42.044H167.473V40.6551L167.806 38.0234C167.957 36.5916 168.228 34.6815 168.349 33.7652C168.47 32.8488 168.712 31.5774 168.833 30.9015C168.954 30.2257 169.196 29.0087 169.316 28.1811C169.437 27.3535 169.739 25.9331 169.889 25.0311C170.04 24.129 170.343 22.6371 170.523 21.7494C170.703 20.8616 170.945 19.5014 171.095 18.734C171.246 17.9665 171.517 16.5461 171.668 15.6584C171.818 14.7707 172.122 13.4706 172.24 12.8206C172.358 12.1705 172.511 11.6092 172.511 11.5777V11.4546H168.022L167.962 12.1047C167.933 12.4598 167.75 13.6138 167.6 14.6819C167.449 15.75 167.145 17.4596 166.965 18.4963C166.786 19.5329 166.632 20.4779 166.603 20.6841L166.541 21.0106L166.361 20.9504C166.27 20.8903 165.726 20.7729 165.181 20.624L164.184 20.3863L162.824 20.2689L161.467 20.1801L160.319 20.2689L159.172 20.3863L158.116 20.6526L157.059 20.8903L156.062 21.3628L155.065 21.8353L154.34 22.3679L153.614 22.9006L152.98 23.5793C152.58 24.0012 152.207 24.4458 151.862 24.9108L151.378 25.5895L150.806 26.7722C150.511 27.3936 150.112 28.2498 149.959 28.6336C149.805 29.0173 149.537 29.905 149.369 30.5837L149.074 31.795L148.891 33.3929L148.74 34.9908L148.861 36.2623L148.982 37.5624L149.133 38.0062C149.232 38.3484 149.353 38.684 149.496 39.0114L149.708 39.5841L150.101 40.1167L150.522 40.6494L150.977 41.0044L151.431 41.3882L152.065 41.6745C152.48 41.8753 152.915 42.0336 153.363 42.147C153.786 42.2779 154.22 42.3673 154.661 42.4134C155.198 42.4761 155.737 42.5047 156.278 42.4993ZM158.048 39.6013L157.263 39.6299L156.75 39.5411C156.386 39.4907 156.031 39.3945 155.694 39.2548L155.18 39.0486L154.759 38.6935L154.336 38.3384L153.702 37.1557L153.552 36.477L153.402 35.827V34.4954L153.431 33.1638L153.581 31.9811L153.761 30.7985L154.033 29.9709C154.154 29.527 154.275 29.0831 154.275 29.0259C154.361 28.7412 154.473 28.4644 154.608 28.1983C154.788 27.8145 155.062 27.2533 155.242 26.8982C155.472 26.4911 155.724 26.0963 155.998 25.7155C156.517 25.0281 157.15 24.4291 157.871 23.9429L158.354 23.6766L159.169 23.3902L159.983 23.1239H163.455L164.452 23.3902C164.995 23.5391 165.57 23.7167 165.75 23.774L166.021 23.8914L165.963 24.1577C165.933 24.3352 165.812 25.0168 165.691 25.6668C165.57 26.3169 165.329 27.6485 165.178 28.5648C165.027 29.4812 164.756 30.8128 164.605 31.5802C164.455 32.3477 164.243 33.2984 164.122 33.7394C164.001 34.1804 163.85 34.7445 163.759 35.0395C163.642 35.4261 163.49 35.8015 163.305 36.162C163.133 36.5294 162.935 36.8854 162.715 37.2273C162.509 37.4951 162.287 37.7514 162.051 37.9948C161.756 38.2419 161.443 38.4687 161.116 38.6735L160.543 39.0572L158.883 39.5898L158.048 39.6013Z" fill="#B3131B"/>
<path d="M120.893 42.4699L122.312 42.4413L123.197 42.2036L124.102 41.9974L124.675 41.7311C125.074 41.5433 125.457 41.3259 125.822 41.0811C126.218 40.8265 126.582 40.5287 126.908 40.1934C127.244 39.8701 127.556 39.5247 127.843 39.1596C128.085 38.8732 128.265 38.6269 128.294 38.6556C128.289 39.0135 128.249 39.3703 128.173 39.7209C128.087 40.269 128.037 40.8219 128.023 41.376V42.0261H131.858L131.917 40.5484L131.976 39.0994L132.247 37.2066C132.398 36.1413 132.64 34.6035 132.79 33.7473C132.941 32.8911 133.212 31.4707 133.362 30.5973C133.513 29.7239 133.784 28.2921 133.935 27.4645L134.23 25.9869V23.4096L133.935 22.8197L133.663 22.2298L133.241 21.8461L132.849 21.4623L132.185 21.1359L131.522 20.8095L129.56 20.3942L128.2 20.2768L126.84 20.188L125.088 20.2768C124.152 20.3369 122.793 20.4543 122.099 20.5431L120.831 20.692H119.14L119.02 21.2819C118.928 21.6084 118.748 22.3758 118.598 23.0001C118.471 23.3729 118.38 23.7564 118.326 24.1456C118.673 24.0988 119.016 24.0299 119.353 23.9394C119.866 23.7905 121.043 23.5557 121.89 23.4067L123.459 23.1404L124.878 23.0803L126.297 23.0201L128.108 23.3466L128.698 23.633L129.289 23.9193L129.651 24.3918L129.985 24.8959V26.4622L129.805 27.3214L129.625 28.1804L125.852 28.2091H122.079L120.84 28.5355C120.176 28.7417 119.421 28.9794 119.179 29.1082C119.002 29.1861 118.821 29.2548 118.636 29.3144C118.328 29.4476 118.032 29.6056 117.751 29.7869L116.937 30.2594L116.303 30.8808C115.959 31.2368 115.637 31.6116 115.338 32.0034C115.065 32.4303 114.822 32.8753 114.612 33.3349L114.279 34.1339L114.129 35.0216L113.948 35.9094V37.8022L114.099 38.5697L114.25 39.3686L114.544 39.8726C114.738 40.1893 114.95 40.4952 115.179 40.789L115.542 41.1727L116.132 41.5564L116.766 41.9402L117.491 42.1177C117.925 42.2489 118.369 42.3445 118.819 42.4041L119.409 42.5215L120.893 42.4699ZM122.22 39.6063L121.374 39.6664L120.801 39.5175C120.448 39.4205 120.104 39.2922 119.775 39.1338L119.32 38.8961L119.049 38.6098C118.87 38.3847 118.709 38.1473 118.565 37.8996L118.353 37.4557L118.294 36.4792L118.264 35.5027L118.444 34.8813C118.575 34.4472 118.737 34.0225 118.928 33.6099L119.261 32.9598L119.896 32.3384L120.53 31.717L121.223 31.3905L121.887 31.1042L122.734 30.898L123.58 30.6918H128.805L128.985 30.7806L129.135 30.8407L128.985 31.6397C128.888 32.2373 128.757 32.8289 128.592 33.4123C128.442 33.9449 128.17 34.7439 128.02 35.1562C127.903 35.4363 127.805 35.7232 127.725 36.0153C127.612 36.2507 127.481 36.4778 127.333 36.694L126.94 37.3154L126.306 37.9368C126.092 38.1607 125.86 38.3686 125.613 38.5582C125.442 38.6181 125.28 38.698 125.129 38.7959L124.766 39.0622L123.881 39.3285L123.035 39.5949L122.22 39.6063Z" fill="#B3131B"/>
<path d="M103.68 42.4997L104.827 42.5283L106.125 42.3794C106.851 42.2906 107.816 42.1417 108.27 42.0529C108.724 41.9642 109.45 41.8152 109.869 41.6978C110.288 41.5804 110.715 41.4315 110.774 41.4115C110.898 41.0759 110.989 40.7296 111.046 40.3777C111.167 39.8451 111.288 39.1349 111.341 38.7798C111.397 38.5676 111.418 38.3482 111.403 38.1297C111.373 38.1011 111.311 38.1297 111.223 38.1899C110.862 38.3734 110.489 38.5312 110.105 38.6624L109.078 39.0461L107.659 39.3124L106.211 39.5787L105.004 39.5501L103.765 39.49L103.072 39.2523L102.379 39.0146L101.865 38.5707L101.323 38.0982L100.96 37.4768L100.597 36.8268L100.446 35.9992L100.267 35.1401V32.9523L100.479 31.6207L100.691 30.2891L100.904 29.5503C101.025 29.1666 101.146 28.6912 101.199 28.545C101.312 28.1711 101.453 27.8055 101.621 27.4511C101.842 26.9537 102.094 26.4698 102.376 26.0021L102.768 25.3234L103.282 24.8195L103.765 24.3183L104.308 23.9919L104.821 23.6654L105.515 23.4592C105.988 23.316 106.472 23.2069 106.963 23.1328L107.748 23.0154L108.895 23.0755L110.043 23.1356L111.403 23.4019L112.763 23.6682L113.335 23.8745C113.63 23.9919 113.907 24.0806 113.907 24.0806C113.988 23.8002 114.039 23.5122 114.058 23.2215C114.149 22.749 114.27 21.9787 114.353 21.5349C114.428 21.2348 114.469 20.9274 114.474 20.6185C114.176 20.5472 113.873 20.4974 113.568 20.4696C113.084 20.441 111.798 20.3207 110.701 20.2634L108.677 20.146L107.258 20.2634L105.869 20.3808L104.812 20.587L103.756 20.7931L103.093 21.0595C102.679 21.2324 102.276 21.4294 101.886 21.6494C101.591 21.8269 101.222 22.0646 101.039 22.182C100.655 22.4833 100.292 22.8096 99.9538 23.1585L99.169 23.926L98.7147 24.5474C98.3581 25.0796 98.035 25.6324 97.7472 26.2026L97.2635 27.1791L96.8711 28.273C96.6179 28.9804 96.4061 29.7015 96.237 30.4323L95.9653 31.4976L95.8446 32.4741L95.7529 33.4506V36.0278L95.8446 36.7667L95.9653 37.5055L96.2605 38.2729L96.5553 39.0404L96.9477 39.6131L97.2811 40.1858L97.8712 40.7185L98.4433 41.2912L99.0334 41.6177L99.6234 41.904L100.438 42.1417C100.86 42.2591 101.494 42.3794 101.827 42.4281C102.442 42.4916 103.061 42.5154 103.68 42.4997Z" fill="#B3131B"/>
<path d="M70.3805 42.4984L71.528 42.5271L72.6755 42.4097C73.3096 42.381 74.3658 42.2607 74.9999 42.172C75.6343 42.0832 76.7199 41.8856 77.416 41.7281L78.6845 41.4618L78.7761 40.9893C78.8055 40.723 78.9559 39.9842 79.071 39.3055L79.3424 38.0942L79.2834 38.034L79.2243 37.9739L78.8322 38.1514C78.352 38.3694 77.8595 38.5606 77.3572 38.7242L76.2391 39.0792L75.0916 39.2854L73.944 39.4916L72.1031 39.5202H70.2624L69.6724 39.3141C69.2791 39.1944 68.8952 39.046 68.5248 38.8702L68.0411 38.6325L67.1943 37.8937L66.8995 37.321L66.5661 36.7883L66.3538 36.0782L66.1414 35.3995V32.8222L66.3212 31.6997L66.5012 30.5542L69.6724 30.4053L75.4986 30.4339L81.2953 30.4626L81.4753 29.7524C81.6192 29.1378 81.7302 28.5167 81.8087 27.8911L81.959 26.7972V24.9043L81.8087 24.1941L81.6286 23.5154L81.3572 23.043C81.1913 22.7517 80.9998 22.4748 80.7851 22.2154C80.5686 21.9932 80.3369 21.7856 80.0916 21.594C79.8793 21.4766 79.5016 21.2388 79.1861 21.0899L78.6727 20.8036L77.7669 20.5974L76.8321 20.3912L75.7139 20.2738L74.5958 20.1851L73.5399 20.2452L72.4837 20.3053L71.2446 20.543L69.9763 20.7807L69.1916 21.0671C68.6967 21.2801 68.2132 21.5171 67.743 21.7772C67.3324 21.9963 66.9379 22.2432 66.5632 22.516C66.3212 22.7222 65.8697 23.1374 65.566 23.4038C65.262 23.6701 64.8726 24.2027 64.6309 24.5263C64.3888 24.8499 64.0408 25.4713 63.8167 25.8579C63.5923 26.2445 63.3623 26.8029 63.2443 27.1007C63.1262 27.3985 62.9109 27.9598 62.7605 28.3722C62.6102 28.7845 62.3681 29.6149 62.2474 30.1762C62.1264 30.7375 61.9141 31.6853 61.8254 32.2466L61.6453 33.2804V36.3244L61.8254 37.0031C61.9243 37.4129 62.0454 37.8172 62.1881 38.2144C62.3256 38.5692 62.4871 38.9146 62.6721 39.2482C62.8733 39.5741 63.1053 39.8808 63.3653 40.1646C63.6657 40.463 63.9882 40.7396 64.3298 40.9922C64.6864 41.2493 65.0714 41.4675 65.4776 41.6422L66.0674 41.9085L66.9141 42.1147C67.3979 42.2321 68.1207 42.3524 68.5131 42.4011C69.1331 42.4689 69.7564 42.5016 70.3805 42.4984ZM72.3422 28.0715C69.4424 28.0715 67.0883 28.0429 67.0883 28.0114C67.0883 27.9799 67.209 27.6276 67.3597 27.2439C67.5101 26.8602 67.7815 26.2101 67.9318 25.855L68.2652 25.2652L68.9584 24.5865L69.6518 23.9078L70.3156 23.5813C70.6768 23.4155 71.0504 23.2767 71.4334 23.1661C71.9107 23.0694 72.395 23.0101 72.882 22.9886L73.9379 22.9284L74.7227 23.0172L75.5368 23.1346L76.1093 23.4009L76.6993 23.6386L76.9942 23.9937C77.1836 24.1786 77.3464 24.3877 77.4779 24.6151L77.6283 24.8814L77.7199 25.4713L77.8113 26.0612L77.6903 27.0664L77.5989 28.0715H72.3422Z" fill="#B3131B"/>
<path d="M41.1844 51.5442L41.2434 51.3953C41.308 51.2461 41.3392 51.0849 41.3348 50.9228C41.3348 50.7452 41.3938 50.1553 41.4854 49.5625C41.5768 48.9698 41.7803 47.6697 41.9692 46.6359C42.158 45.6021 42.3909 44.0042 42.512 43.148C42.633 42.2918 42.8453 41.1434 42.9043 40.6652C42.9243 40.3537 42.9848 40.0458 43.0841 39.7489C43.2174 39.9024 43.3293 40.0716 43.4175 40.2529L43.6888 40.7254L44.2613 41.2981L44.8334 41.888L45.5592 42.1543L46.2526 42.4407L47.1376 42.5294L47.984 42.6469L49.0699 42.5867L50.1257 42.5266L51.3059 42.2402L52.4857 41.9539L53.1201 41.6675C53.4534 41.5186 54.0553 41.1635 54.48 40.9287L55.2057 40.4562L55.8989 39.7775C56.3174 39.3666 56.7115 38.9324 57.079 38.4774C57.2602 38.2543 57.422 38.0166 57.5627 37.7672C57.5627 37.7386 57.7131 37.5295 57.8576 37.2947C58.0024 37.0599 58.3416 36.407 58.613 35.8457C58.8844 35.2845 59.2028 34.2478 59.4595 33.5691L59.8519 32.3578L60.0642 31.2925C60.1852 30.7026 60.3356 29.7261 60.3976 29.1334L60.5186 28.0396L60.4595 27.1232L60.3682 26.2068L60.1559 25.2904L59.9432 24.3455L59.5805 23.6668L59.2471 22.9881L58.554 22.278L57.8605 21.5678L56.2619 20.7402L55.3561 20.534L54.4711 20.3278L53.5653 20.2677L52.6804 20.2075L51.6833 20.2963L50.6864 20.4137L49.872 20.6199L49.0875 20.8261L48.3617 21.1525C47.9359 21.3453 47.522 21.5624 47.1226 21.8026C46.8277 21.9801 46.5328 22.2178 46.4294 22.2751C46.3011 22.3979 46.1595 22.5073 46.0077 22.6015L45.7363 22.7791L45.9163 21.8627C46.005 21.5315 46.0758 21.196 46.1287 20.8576V20.7087H42.2937L41.9604 22.7791C41.7803 23.9245 41.4766 25.7057 41.2966 26.7108C41.1165 27.716 40.8748 29.2536 40.7242 30.1099C40.5738 30.9661 40.3318 32.4466 40.152 33.4202C39.972 34.3939 39.6976 35.9975 39.5176 36.9081C39.3379 37.8188 39.0958 39.2134 38.9455 39.9235C38.7951 40.6337 38.5531 42.0512 38.373 43.0277C38.1933 44.0042 37.9187 45.4819 37.7389 46.3982C37.5589 47.3146 37.2845 48.735 37.1045 49.5482C36.9248 50.3615 36.7711 51.2034 36.7418 51.3208L36.6827 51.5585L41.1844 51.5442ZM47.7658 39.7489L47.1937 39.6601L46.6212 39.5427L46.0491 39.2764L45.4766 39.0387L45.0549 38.655L44.6625 38.2712L44.4205 37.7672C44.2724 37.4216 44.1511 37.0653 44.0577 36.702L43.9074 36.1292L43.9664 35.2415L44.0251 34.3538L44.2965 32.9649C44.4472 32.2261 44.7186 30.7771 44.869 29.8149C45.0193 28.8527 45.3233 27.3895 45.459 26.5934L45.7304 25.1616L46.3205 24.6891C46.6838 24.3836 47.0794 24.1158 47.5003 23.8902L48.0431 23.5637L48.7985 23.3575L49.5239 23.1198L51.3972 23.0024L52.182 23.18L52.9371 23.3289L53.4799 23.5666L54.0227 23.8329L54.477 24.2768L54.9314 24.7206L55.1731 25.1931C55.3549 25.5516 55.4962 25.9279 55.5952 26.3157L55.7749 26.9943L55.7162 28.9157L55.6571 30.8659L55.3858 32.0113C55.2289 32.741 55.0318 33.4617 54.7957 34.1705L54.4327 35.1756L53.9786 35.9746C53.7366 36.4185 53.3885 37.0399 53.1641 37.3348C52.9436 37.6361 52.6904 37.9136 52.409 38.1624C52.1711 38.3752 51.9188 38.5722 51.6539 38.7523L51.2912 39.0186L49.521 39.6085L47.7658 39.7489Z" fill="#B3131B"/>
</svg>
