<svg width="112" height="83" viewBox="0 0 112 83" fill="none" xmlns="http://www.w3.org/2000/svg">
<g clip-path="url(#clip0_86_13)">
<path d="M108.043 0.00195312H0.357605V79.3933H108.043V0.00195312Z" fill="white"/>
<path d="M19.904 79.2127V73.9368C19.9406 73.4908 19.8775 73.0422 19.719 72.6222C19.5606 72.2021 19.3106 71.8203 18.9861 71.5027C18.6616 71.1855 18.2703 70.9401 17.8391 70.7832C17.4079 70.6265 16.947 70.5623 16.4878 70.5951C15.8784 70.5702 15.2722 70.6933 14.7239 70.9528C14.1755 71.2126 13.7022 71.6005 13.3463 72.0819C13.0377 71.5944 12.5977 71.1982 12.0742 70.9362C11.5506 70.6742 10.9633 70.5562 10.3757 70.5951C9.86 70.5724 9.34641 70.6727 8.87976 70.8871C8.41307 71.1014 8.00747 71.4237 7.69837 71.8257V70.7648H5.94202V79.2055H7.69837V74.3771C7.66499 74.0833 7.69938 73.786 7.79904 73.5066C7.89874 73.2277 8.06116 72.9736 8.27457 72.7633C8.48793 72.5525 8.74693 72.3908 9.03267 72.2902C9.31841 72.1891 9.62372 72.1512 9.92639 72.1794C11.2186 72.1794 11.9575 72.9697 11.9575 74.3771V79.2127H13.714V74.3771C13.6806 74.0833 13.715 73.786 13.8147 73.5066C13.9143 73.2277 14.0768 72.9736 14.2902 72.7633C14.5035 72.5525 14.7625 72.3908 15.0482 72.2902C15.3339 72.1891 15.6392 72.1512 15.9419 72.1794C17.2341 72.1794 17.9731 72.9697 17.9731 74.3771V79.2127H19.904ZM48.7306 70.8586H45.4963V68.3108H43.7436V70.8586H41.887V72.3454H43.7436V76.3149C43.7436 78.2492 44.4863 79.3931 46.7142 79.3931C47.5531 79.3762 48.3756 79.1647 49.1127 78.7761L48.556 77.2893C48.0555 77.5863 47.4784 77.7389 46.8925 77.7295C46.7005 77.7469 46.5067 77.722 46.3262 77.6566C46.1454 77.5913 45.9824 77.487 45.8494 77.3513C45.7161 77.216 45.6158 77.0533 45.5568 76.875C45.4974 76.6967 45.4807 76.5076 45.5074 76.3221V72.2804H48.7417V70.873L48.7306 70.8586ZM65.1768 70.5951C64.7011 70.5832 64.2306 70.6901 63.8099 70.9055C63.3896 71.1209 63.0327 71.4378 62.7743 71.8257V70.7648H61.0179V79.2055H62.7743V74.4637C62.7743 73.0563 63.5169 72.1794 64.7163 72.1794C65.1215 72.1952 65.5236 72.2544 65.9157 72.3562L66.4727 70.772C66.0468 70.6695 65.615 70.6103 65.1768 70.5951ZM40.3237 71.4753C39.2379 70.8449 37.985 70.5385 36.7216 70.5951C34.4936 70.5951 33.1197 71.5623 33.1197 73.2331C33.1197 74.6405 34.1371 75.4308 36.0903 75.6942L37.0149 75.7808C38.0325 75.9577 38.6787 76.3077 38.6787 76.748C38.6787 77.3651 37.936 77.8089 36.5545 77.8089C35.4926 77.8331 34.451 77.5242 33.5839 76.9284L32.6592 78.2456C33.7878 78.9543 35.1068 79.3235 36.4505 79.3065C39.05 79.3065 40.4239 78.1662 40.4239 76.582C40.4239 75.0952 39.3099 74.3843 37.3751 74.1208L36.4505 74.0342C35.6187 73.9476 34.8909 73.6734 34.8909 73.1573C34.8909 72.5402 35.6336 72.0964 36.6473 72.0964C37.6129 72.1353 38.5591 72.3753 39.4209 72.8001L40.3237 71.4753ZM67.1151 74.9941C67.0847 75.5871 67.1838 76.1796 67.4066 76.7328C67.6294 77.2857 67.9703 77.7866 68.407 78.2019C68.8437 78.6173 69.3658 78.9381 69.9395 79.1427C70.5132 79.3473 71.1248 79.4314 71.7345 79.3895C72.8678 79.4502 73.9851 79.1063 74.8759 78.4224L73.9513 77.1052C73.2926 77.6101 72.4801 77.888 71.6417 77.8955C70.9005 77.8591 70.2024 77.5473 69.6914 77.0248C69.1805 76.5022 68.8953 75.8086 68.8953 75.088C68.8953 74.367 69.1805 73.6737 69.6914 73.1512C70.2024 72.6286 70.9005 72.3169 71.6417 72.2804C72.4801 72.2876 73.2926 72.5655 73.9513 73.0707L74.8759 71.7535C73.9847 71.0704 72.8678 70.7265 71.7345 70.7864C71.1344 70.7168 70.5262 70.7759 69.9521 70.9593C69.378 71.143 68.8526 71.4464 68.4122 71.8484C67.9718 72.2508 67.6276 72.7416 67.4037 73.2869C67.1794 73.8321 67.081 74.4186 67.1151 75.005V74.9941ZM54.735 70.5988C54.1431 70.5771 53.553 70.6774 53.0038 70.8929C52.455 71.1087 51.9589 71.4349 51.5486 71.8499C51.1383 72.2649 50.823 72.7596 50.6232 73.3017C50.4238 73.8433 50.3444 74.42 50.3904 74.9941C50.357 75.5798 50.4513 76.1663 50.6671 76.7144C50.8828 77.2626 51.2151 77.7606 51.6422 78.1752C52.0696 78.5902 52.582 78.9128 53.1461 79.1218C53.7105 79.3311 54.3139 79.4224 54.9169 79.3895C56.2159 79.4173 57.4858 79.015 58.5188 78.2492L57.5942 77.0186C56.8449 77.5711 55.9351 77.8797 54.9945 77.8991C54.3455 77.9291 53.7083 77.7191 53.2118 77.3117C52.7149 76.9039 52.3956 76.3286 52.3176 75.7015H58.879V74.9978C58.9373 74.4362 58.8723 73.8697 58.6889 73.3345C58.5055 72.799 58.2077 72.3078 57.8148 71.8925C57.4219 71.4775 56.9429 71.1476 56.4097 70.9253C55.8761 70.703 55.3005 70.593 54.7201 70.6024L54.735 70.5988ZM54.6418 72.183C54.9381 72.1667 55.2344 72.2093 55.5133 72.3078C55.7918 72.4064 56.0469 72.5594 56.263 72.7568C56.4791 72.9542 56.6514 73.1923 56.7699 73.4565C56.8883 73.721 56.95 74.0057 56.9518 74.2941H52.1505C52.2259 73.7055 52.5219 73.1649 52.9812 72.7748C53.4409 72.3851 54.0321 72.1729 54.6418 72.1794V72.183ZM30.7134 74.9941V70.7864H28.9422V71.8474C28.6007 71.4349 28.1625 71.1083 27.6645 70.8939C27.1664 70.68 26.6229 70.585 26.0793 70.6168C24.9115 70.6626 23.8072 71.1458 22.9977 71.965C22.1881 72.7845 21.736 73.8762 21.736 75.0122C21.736 76.1479 22.1881 77.2398 22.9977 78.059C23.8072 78.8782 24.9115 79.3614 26.0793 79.4076C26.6228 79.4383 27.166 79.3426 27.6639 79.1286C28.1618 78.9146 28.6001 78.5884 28.9422 78.177V79.238H30.6986L30.7134 74.9941ZM23.5987 74.9941C23.6306 74.4792 23.8162 73.9844 24.1329 73.5705C24.4495 73.157 24.8835 72.8416 25.3817 72.6637C25.8798 72.4857 26.4205 72.4529 26.9376 72.5691C27.4547 72.6849 27.9257 72.9451 28.2931 73.3175C28.6604 73.6896 28.908 74.158 29.0057 74.665C29.1035 75.1717 29.047 75.6953 28.8432 76.1717C28.6394 76.648 28.2971 77.0562 27.8583 77.3463C27.4195 77.6364 26.9032 77.7959 26.3726 77.8053C25.9922 77.8259 25.6117 77.766 25.2573 77.6303C24.9028 77.4943 24.5828 77.2853 24.3193 77.0179C24.0557 76.7505 23.8549 76.4311 23.7305 76.0811C23.6062 75.731 23.5612 75.3626 23.5987 74.9941ZM91.8755 70.5988C91.3998 70.5868 90.9293 70.6937 90.5086 70.9091C90.0879 71.1245 89.7314 71.4414 89.4729 71.8293V70.7684H87.7166V79.2091H89.4692V74.4673C89.4692 73.0599 90.2119 72.183 91.4113 72.183C91.8164 72.1989 92.2186 72.258 92.6107 72.3598L93.1673 70.7752C92.744 70.6735 92.311 70.6143 91.8755 70.5988ZM85.0393 74.9941V70.7864H83.2829V71.8474C82.9412 71.4349 82.5031 71.1083 82.0051 70.8939C81.5068 70.68 80.9632 70.585 80.4195 70.6168C79.2521 70.6626 78.1477 71.1458 77.3382 71.965C76.5287 72.7845 76.0765 73.8762 76.0765 75.0122C76.0765 76.1479 76.5287 77.2398 77.3382 78.059C78.1477 78.8782 79.2521 79.3614 80.4195 79.4076C80.9632 79.4383 81.5064 79.3426 82.0044 79.1286C82.5023 78.9146 82.9405 78.5884 83.2829 78.177V79.238H85.0393V74.9941ZM77.9246 74.9941C77.9561 74.4792 78.1418 73.9844 78.4585 73.5705C78.7753 73.157 79.209 72.8416 79.7073 72.6637C80.2053 72.4857 80.7463 72.4529 81.2632 72.5691C81.7805 72.6849 82.2513 72.9451 82.6186 73.3175C82.9858 73.6896 83.2339 74.158 83.3315 74.665C83.4292 75.1717 83.3727 75.6953 83.1689 76.1717C82.965 76.648 82.6226 77.0562 82.1841 77.3463C81.7452 77.6364 81.229 77.7959 80.6984 77.8053C80.3178 77.8259 79.9372 77.766 79.5829 77.6303C79.2283 77.4943 78.9086 77.2853 78.645 77.0179C78.3813 76.7505 78.1804 76.4311 78.056 76.0811C77.9316 75.731 77.8867 75.3626 77.9246 74.9941ZM102.871 74.9941V67.4155H101.114V71.8113C100.773 71.3988 100.334 71.0722 99.8364 70.8579C99.3381 70.6439 98.7948 70.549 98.2512 70.5807C97.0834 70.6265 95.979 71.1097 95.1695 71.9289C94.36 72.7481 93.9077 73.8401 93.9077 74.9761C93.9077 76.1118 94.36 77.2038 95.1695 78.0229C95.979 78.8421 97.0834 79.3253 98.2512 79.3715C98.7944 79.4022 99.3377 79.3069 99.8357 79.0929C100.334 78.8789 100.772 78.5523 101.114 78.1409V79.2019H102.871V74.9941ZM95.7559 74.9941C95.7874 74.4792 95.9731 73.9844 96.2898 73.5705C96.6066 73.157 97.0403 72.8416 97.5386 72.6637C98.0366 72.4857 98.5776 72.4529 99.0945 72.5691C99.6117 72.6849 100.083 72.9451 100.45 73.3175C100.817 73.6896 101.065 74.158 101.163 74.665C101.26 75.1717 101.204 75.6953 101 76.1717C100.796 76.648 100.454 77.0562 100.015 77.3463C99.5765 77.6364 99.06 77.7959 98.5293 77.8053C98.1495 77.8259 97.7692 77.766 97.4153 77.6303C97.0611 77.4946 96.7414 77.286 96.4777 77.019C96.2144 76.7523 96.0132 76.4329 95.8888 76.0833C95.764 75.7339 95.7187 75.3622 95.7559 74.9941Z" fill="black"/>
<path d="M70.3494 6.76807H38.2888V56.5285H70.3494V6.76807Z" fill="#FF5F00"/>
<path d="M41.5231 31.6463C41.5365 26.8371 42.6828 22.0948 44.8744 17.783C47.066 13.4711 50.245 9.7044 54.167 6.77157C47.5558 1.84677 39.3048 -0.529609 31.0002 0.0992124C22.6954 0.728036 14.9229 4.3177 9.17648 10.1782C3.51119 15.9713 0.352203 23.6579 0.352203 31.6499C0.352203 39.6419 3.51119 47.3288 9.17648 53.1218C14.9229 58.9823 22.6954 62.5719 31.0002 63.2005C39.3048 63.8295 47.5558 61.4532 54.167 56.5284C50.2442 53.5945 47.0649 49.8267 44.8733 45.5136C42.6813 41.2005 41.5354 36.4569 41.5231 31.6463Z" fill="#EB001B"/>
<path d="M108.043 31.65C108.019 37.6262 106.249 43.4726 102.94 48.51C99.6307 53.547 94.9181 57.5678 89.3504 60.1047C83.7333 62.703 77.4871 63.7441 71.3 63.1133C65.1129 62.4822 59.2255 60.2036 54.2857 56.5285C58.2214 53.6058 61.4104 49.8405 63.6057 45.5256C65.8006 41.2107 66.9428 36.4617 66.9428 31.6482C66.9428 26.8347 65.8006 22.0859 63.6057 17.7708C61.4104 13.4558 58.2214 9.69072 54.2857 6.76807C59.2255 3.09292 65.1129 0.814291 71.3 0.18328C77.4871 -0.447732 83.7333 0.59337 89.3504 3.19186C94.9181 5.72862 99.6307 9.74936 102.94 14.7865C106.249 19.8237 108.019 25.6703 108.043 31.6464V31.65Z" fill="#F79E1B"/>
</g>
<defs>
<clipPath id="clip0_86_13">
<rect width="111.399" height="83" fill="white" transform="translate(0.346222)"/>
</clipPath>
</defs>
</svg>
