<svg width="134" height="78" viewBox="0 0 134 78" fill="none" xmlns="http://www.w3.org/2000/svg">
<path d="M89.4171 46.7285C89.4171 45.6885 88.6633 45.1165 87.4964 44.707C86.3239 44.317 84.9058 44.2682 82.9739 44.2682H74.3588V53.4333H78.1276V50.0955H82.1476C83.4876 50.0955 84.3251 50.1735 84.8164 50.5017C85.4864 50.9242 85.3971 51.7368 85.3971 52.2893V53.4267H89.0821V51.623C89.0709 50.8105 88.9872 50.401 88.4791 49.946C88.1441 49.686 87.4741 49.361 86.6366 49.1855L86.7483 49.1595C87.7533 48.9255 89.4283 48.1942 89.4283 46.7318L89.4171 46.7285ZM84.5596 48.0513L84.4033 48.0448C83.9007 48.217 83.3145 48.2332 82.5608 48.2332H78.0383V46.1858H82.6389C83.3089 46.1858 83.9789 46.1857 84.4814 46.3482C85.0286 46.5042 85.3524 46.826 85.3189 47.177C85.3189 47.567 85.0677 47.8758 84.5708 48.0545L84.5596 48.0513ZM113.325 51.4702H106.083V53.4202H113.364C117.138 53.4202 119.227 52.5168 119.227 50.5473C119.227 49.6373 118.858 49.0912 118.182 48.6558C117.328 48.2235 115.994 48.0285 114.107 47.983L112.007 47.9342C111.427 47.9342 111.002 47.9342 110.584 47.8368C110.081 47.7393 109.746 47.4955 109.746 47.1543C109.746 46.8617 109.841 46.6147 110.249 46.4717C110.712 46.3223 111.237 46.2573 111.767 46.2768H118.635V44.3203H111.097C107.167 44.3203 105.748 45.7405 105.748 47.0503C105.748 49.9753 110.081 49.829 113.604 49.8778C114.185 49.8778 114.609 49.9265 114.86 50.0728C115.117 50.1702 115.318 50.4172 115.318 50.6577C115.318 50.908 115.123 51.1453 114.871 51.2428C114.536 51.415 114.034 51.4702 113.325 51.4702ZM0 0V32.812L4.5225 26.715H14.2933L15.5496 28.223V26.715H26.9563L29.4688 30.03L31.9088 26.7378H68.2116C69.8587 26.7378 71.3382 26.923 72.4326 27.5048V26.7572H82.41V27.5048C84.1241 26.9523 86.2402 26.7572 88.6633 26.7572H103.214L104.554 28.2718V26.7572H115.262L116.681 28.2685V26.754H127.054V39.585H116.524L114.514 37.635V39.5363H101.377L99.9473 37.4888H96.6922L95.1847 39.4842H88.4121C85.7321 39.4842 83.7221 39.1463 82.3821 38.7043V39.4842H66.2463V36.6113C66.2463 36.2213 66.0788 36.2212 65.66 36.1725H65.0738V39.5395H33.8741V37.9795L32.7016 39.5395H26.1858L25.058 37.9795V39.4907H12.4788L11.0494 37.4628H7.81667L6.38733 39.4907H0V78H132.805V54.899C131.298 55.3377 129.383 55.484 127.373 55.484H117.753V54.6552C116.58 55.1915 114.57 55.484 112.649 55.484H82.1308V52.559C82.1308 52.169 82.0303 52.169 81.4608 52.169H81.0421V55.4905H70.9921V52.026C69.3283 52.468 67.402 52.5135 65.8108 52.468H64.6159V55.4417H52.4442L49.4292 53.4365L46.2467 55.3865H26.4762V42.614H46.632L49.5242 44.5705L52.6173 42.6205H66.0843C67.6477 42.6205 70.216 42.718 71.3438 43.3517V42.5718H83.4987C84.6266 42.5718 87.0944 42.718 88.5405 43.303V42.523H106.77V43.303C107.68 42.77 109.606 42.523 111.254 42.523H121.806V43.303C122.889 42.8155 124.397 42.523 126.496 42.523H133.062V0H0ZM118.121 48.6037C118.143 48.62 118.16 48.6427 118.182 48.6558C118.238 48.6882 118.311 48.6883 118.356 48.7207L118.121 48.607V48.6037ZM133.04 42.5165H133.403V44.3203H133.04V42.5165ZM133.246 48.8475V48.8312C133.079 48.75 132.989 48.6753 132.828 48.6037C131.99 48.1065 130.65 47.905 128.562 47.8725L126.552 47.8335C125.882 47.8335 125.469 47.8107 125.044 47.736C124.542 47.6385 124.207 47.3947 124.207 47.0535C124.207 46.761 124.374 46.5335 124.709 46.3905C125.134 46.2443 125.547 46.228 126.217 46.228H133.045V44.317H125.882C122.029 44.317 120.522 45.7373 120.522 47.047C120.522 49.972 124.877 49.8257 128.394 49.8745C128.975 49.8745 129.399 49.9233 129.645 50.0695C129.902 50.167 130.069 50.414 130.069 50.6545C130.069 50.882 129.88 51.103 129.567 51.2395C129.316 51.4215 128.808 51.467 128.059 51.467H120.868V53.4333H128.054C130.399 53.4333 132.152 53.0497 133.079 52.2632H133.246C133.749 51.8277 134 51.2882 134 50.5635C134 49.7835 133.749 49.296 133.246 48.854V48.8475ZM103.833 46.176V44.2812H91.3545V53.4885H103.833V51.5872H95.0674V49.7348H103.627V47.8368H95.073V46.1792M75.4308 28.5577H79.2554V37.7H75.4364L75.4308 28.5577ZM73.2868 31.0148L73.2478 31.0342C73.2478 30.0138 72.5219 29.4093 71.3494 29.0063C70.1378 28.6 68.7253 28.5675 66.8269 28.5675H58.2342V37.7325H61.9973V34.372H66.0173C67.3573 34.372 68.1948 34.4695 68.7364 34.762C69.4176 35.204 69.3338 35.9905 69.3338 36.543V37.6935H73.1138V35.8963C73.1138 35.0838 73.0244 34.6775 72.4996 34.2192C71.9971 33.8715 71.3717 33.6017 70.6571 33.449C71.6174 33.2215 73.2924 32.474 73.2924 31.0115L73.2868 31.0148ZM68.5131 32.3018H68.4293C67.9268 32.4772 67.3406 32.4837 66.5868 32.4837H61.975V30.459H66.5813C67.2513 30.459 67.9212 30.472 68.4238 30.6215C68.9263 30.7515 69.2613 31.0375 69.2613 31.434C69.2613 31.8305 68.9988 32.149 68.5131 32.2985V32.3018ZM88.8867 30.4622H92.4153V28.5122H88.8197C86.229 28.5122 84.3307 28.8535 83.1247 29.5847C81.5278 30.5597 81.1035 31.8273 81.1035 33.1922C81.1035 34.8563 81.7903 35.8995 83.1135 36.6828C84.4088 37.4562 86.7148 37.6903 88.5293 37.6903H92.8843L94.3081 35.6525H102.069L103.532 37.6903H111.125V30.8328L118.227 37.6903H123.531L123.542 37.6968V28.5545H119.723V34.9342L113.135 28.5642H107.44V37.05L101.114 28.418H95.5085L90.2434 35.633H88.5684C87.5802 35.633 86.5473 35.5355 85.9554 35.1975C85.2575 34.71 84.9169 34.0275 84.9169 33.046C84.9169 32.1198 85.3636 31.3885 86.0001 30.9985C86.7427 30.5597 87.5188 30.4622 88.8811 30.4622H88.8867ZM98.1997 30.1113L100.79 33.7448V33.7513H95.5978L98.1997 30.1113ZM13.2883 35.6525L14.7065 37.6935H22.3333V30.5272L27.7603 37.6935H31.021L36.4536 30.537L36.5373 37.6935H40.3898V28.561H34.1588L29.6531 34.749L24.7621 28.5577H18.6651V37.2125L12.3112 28.5577H6.74467L0.0558333 37.6903H4.07583L5.5275 35.6558L13.2883 35.6525ZM9.447 30.1113L12.0153 33.7448L11.9986 33.7513H6.88983L9.44142 30.1113H9.447ZM66.196 44.265H54.2365L49.4907 47.2648L44.8844 44.2682H29.8485V53.4333H44.6667L49.4404 50.4043L54.0411 53.4267H61.3106V50.3717H65.9894C69.3394 50.3717 72.5219 49.8387 72.5219 47.3005L72.4884 47.2907C72.4884 44.7557 69.1496 44.2682 66.1904 44.2682L66.196 44.265ZM42.8242 51.5222L42.746 51.5158H33.6117V49.7055H41.8192V47.84H33.6117V46.1825H42.9917L47.0842 48.8475L42.8186 51.5255L42.8242 51.5222ZM57.5753 52.5948L51.8245 48.867L57.5753 45.266V52.5882V52.5948ZM66.2463 48.5063H61.305V46.176H66.2463C67.5863 46.176 68.5912 46.4945 68.5912 47.294C68.5912 48.0838 67.7538 48.503 66.2463 48.503V48.5063ZM55.6491 30.4622V28.5577H43.1592V37.7H55.6491V35.815H46.9V33.982H55.4258V32.11H46.9V30.4622" fill="#2E77BC"/>
</svg>
