<svg width="134" height="60" viewBox="0 0 134 60" fill="none" xmlns="http://www.w3.org/2000/svg">
<path d="M46.2126 48.656L52.835 11.647H63.4244L56.8019 48.656H46.2126Z" fill="#0E4595"/>
<path d="M95.0157 12.4591C91.9759 11.4092 88.7661 10.8847 85.5353 10.9101C75.0855 10.9101 67.7066 15.9392 67.6497 23.1201C67.59 28.4327 72.9045 31.4 76.9308 33.1755C81.0568 34.9891 82.4446 36.1427 82.4245 37.7682C82.4047 40.2445 79.1317 41.3791 76.0979 41.3791C72.6684 41.4743 69.2623 40.8077 66.1456 39.4318L64.7779 38.8455L63.2907 47.1255C67.0612 48.4558 71.051 49.1221 75.0685 49.0918C86.1921 49.0918 93.4119 44.1391 93.4914 36.4455C93.5313 32.2291 90.7161 29.0355 84.6084 26.3901C80.9119 24.6691 78.6371 23.5346 78.6597 21.7974C78.6597 20.2674 80.582 18.6228 84.7279 18.6228C87.44 18.559 90.136 19.0422 92.6412 20.041L93.5939 20.4746L95.0157 12.4591Z" fill="#0E4595"/>
<path d="M122.242 11.6651H114.073C112.928 11.5224 111.766 11.745 110.766 12.2985C109.766 12.852 108.983 13.7056 108.539 14.7278L92.8346 48.6359H103.939C103.939 48.6359 105.764 44.0814 106.159 43.0777L119.703 43.0968C120.021 44.4004 120.991 48.6359 120.991 48.6359H130.807L122.242 11.6651ZM109.273 35.5559L113.495 25.2169C113.436 25.3123 114.368 23.0815 114.917 21.6715L115.631 24.8651C115.631 24.8651 117.653 33.6932 118.091 35.545H109.276L109.273 35.5559Z" fill="#0E4595"/>
<path d="M37.2299 11.6653L26.8797 36.8981L25.7678 31.7763C23.0822 25.0252 17.852 19.4871 11.1124 16.2581L20.5926 48.6172L31.796 48.5981L48.4534 11.6626L37.2299 11.6653Z" fill="#0E4595"/>
<path d="M17.2003 11.664H0.139331L0 12.4385C13.2678 15.5012 22.0513 22.9113 25.6996 31.8023L22.003 14.7894C21.7301 13.8014 21.0939 12.9414 20.2118 12.368C19.3296 11.7946 18.2611 11.5465 17.2032 11.6694" fill="#F2AE14"/>
</svg>
